<?xml version="1.0" standalone="no"?>
<!DOCTYPE svg PUBLIC "-//W3C//DTD SVG 20010904//EN"
 "http://www.w3.org/TR/2001/REC-SVG-20010904/DTD/svg10.dtd">
<svg version="1.0" xmlns="http://www.w3.org/2000/svg"
 width="260.000000pt" height="260.000000pt" viewBox="0 0 260.000000 260.000000"
 preserveAspectRatio="xMidYMid meet">
<metadata>
Created by potrace 1.14, written by Peter Selinger 2001-2017
</metadata>
<g transform="translate(0.000000,260.000000) scale(0.100000,-0.100000)"
fill="#000000" stroke="none">
<path d="M0 1300 l0 -1300 1300 0 1300 0 0 1300 0 1300 -1300 0 -1300 0 0
-1300z m1700 103 c167 -406 308 -743 313 -750 4 -6 46 -27 93 -45 61 -24 84
-38 84 -50 0 -17 -21 -18 -305 -18 -284 0 -305 1 -305 18 0 13 24 25 95 51 52
18 95 38 95 44 0 6 -44 116 -97 244 l-98 233 -330 -2 -330 -3 -96 -235 c-54
-129 -96 -237 -94 -241 3 -3 43 -21 90 -39 64 -25 85 -37 85 -51 0 -18 -13
-19 -230 -19 -271 0 -281 5 -146 72 l84 41 297 694 297 694 -20 49 -21 50 118
0 118 0 303 -737z"/>
<path d="M1241 1889 c-5 -13 -70 -165 -145 -338 -75 -173 -136 -318 -136 -323
0 -4 131 -8 291 -8 264 0 291 2 285 16 -41 106 -271 661 -277 668 -5 5 -12 -1
-18 -15z"/>
</g>
</svg>
