<?xml version="1.0" encoding="UTF-8"?>
<svg width="623" height="315" version="1.0" viewBox="0 0 467.25 236.25" xmlns="http://www.w3.org/2000/svg" zoomAndPan="magnify">
<defs></defs>
<g fill="#fff">
<g transform="translate(39.541 155.12)">
<path d="m86.734-3.7031v3.7031h-31.109v-3.7031h9.5781l-8.1406-23.578h-28.828l-4.5469 10.766c-1.4375 3.6797-2.1562 6.375-2.1562 8.0938 0 1.7109 0.23828 2.9219 0.71875 3.6406 0.47656 0.71875 2.9883 1.0781 7.5312 1.0781v3.7031h-26.078v-3.7031c4.1445 0.074219 7.1562-0.46875 9.0312-1.625s3.9297-4.8828 6.1719-11.188l25.953-68.172h4.7812l28.234 80.984zm-56.828-28.109h25.484l-11.844-35.062z"/>
</g>
</g>
<g fill="#fff">
<g transform="translate(119.93 155.12)">
<path d="m73.094-28.594h3.8281l-1.3125 28.594h-69.516v-3.7031h11.25v-75.016h-11.25v-3.7031h67.594l0.23438 24.281h-3.7031c-0.5625-6.9375-2.4805-12.02-5.75-15.25-3.2617-3.2266-8.6016-4.9219-16.016-5.0781l-20.453-0.25v34.703h14.594c3.4258 0 5.9766-1 7.6562-3 1.832-2.5508 2.75-6.2578 2.75-11.125h3.7031v33.141h-3.7031c0-4.707-0.98047-8.375-2.9375-11-1.9609-2.6328-4.4492-3.9531-7.4688-3.9531h-14.594v36.25l22.359-0.35938c2.2383 0 4.9297-0.59766 8.0781-1.7969 3.1445-1.1953 5.4766-2.5508 7-4.0625 4.7812-4.4688 7.332-10.691 7.6562-18.672z"/>
</g>
</g>
<g fill="#fff">
<g transform="translate(194.33 155.12)">
<path d="m68.188-28.594h3.8281l-1.5625 28.594h-65.188v-3.7031h11.25v-75.016h-11.25v-3.7031h33.141v3.7031h-11.25v75.016l18.297-0.35938c2.1562 0 4.8281-0.59766 8.0156-1.7969 3.1875-1.1953 5.5391-2.5508 7.0625-4.0625 4.7812-4.4688 7.332-10.691 7.6562-18.672z"/>
</g>
</g>
<g fill="#fff">
<g transform="translate(262.39 155.12)">
<path d="m69.5-72.609c6.5391 7.8125 9.8125 18.043 9.8125 30.688 0 12.637-3.4336 23.062-10.297 31.281-6.8555 8.2109-15.406 12.312-25.656 12.312-10.242 0-19.031-4.1875-26.375-12.562-7.1797-8.4453-10.688-18.867-10.531-31.266 0.16406-12.406 3.6953-22.578 10.594-30.516 6.8945-7.9375 15.742-11.906 26.547-11.906 10.812 0 19.445 3.9922 25.906 11.969zm-26.078 70.094c7.4141 0 13.035-3.5469 16.859-10.641 3.832-7.1016 5.75-16.535 5.75-28.297 0-11.758-1.6719-20.988-5.0156-27.688-3.9922-7.8125-10.117-11.719-18.375-11.719-8.25 0-14.293 3.7109-18.125 11.125-3.1875 6.293-4.7812 15.699-4.7812 28.219 0 26 7.8945 39 23.688 39z"/>
</g>
</g>
<g fill="#fff">
<g transform="translate(339.19 155.12)">
<path d="m84.688-82.422v3.7031c-4.625 0-7.3359 0.40234-8.125 1.2031-2.0742 2.0742-3.1094 5.1406-3.1094 9.2031l0.23438 70.344h-2.75l-50.594-78v61.969c0 4.1484 0.99219 7.1797 2.9844 9.0938 0.78906 0.80469 3.5039 1.2031 8.1406 1.2031v3.7031h-26.438v-3.7031c4.457 0 7.0859-0.35938 7.8906-1.0781 2.2266-1.9141 3.3438-4.9883 3.3438-9.2188v-61.969c-0.24219-1.832-1.4336-2.75-3.5781-2.75h-6.7031v-3.7031h23.922l39.594 61.609v-47.5c0-4.0625-1.1172-7.1719-3.3438-9.3281-0.875-0.71875-3.5117-1.0781-7.9062-1.0781v-3.7031z"/>
</g>
</g>
<g fill="#fff">
<g transform="translate(135.37 203.34)">
<path d="m24.469-10.969c0 3.8555-1.543 6.7969-4.625 8.8281-2.668 1.7617-6.0117 2.6406-10.031 2.6406-2.418 0-5.125-0.56641-8.125-1.7031l0.0625-7.9219h1.4844c0.19531 2.625 0.97656 4.5234 2.3438 5.6875 0.63281 0.53125 1.5664 0.98047 2.7969 1.3438 1.2266 0.36719 2.3438 0.53125 3.3438 0.5 2.2891-0.03125 4.3008-0.64453 6.0312-1.8438 1.6875-1.2266 2.5664-2.875 2.6406-4.9375 0-2.1562-0.76172-3.8789-2.2812-5.1719-1.5117-1.3008-3.5938-2.1016-6.25-2.4062-7.0742-0.86328-10.609-3.8203-10.609-8.875 0-3.5195 1.3438-6.1914 4.0312-8.0156 2.2891-1.5938 5.082-2.3906 8.375-2.3906 0.96875 0 2.1133 0.14062 3.4375 0.42188 1.332 0.28125 2.1875 0.42188 2.5625 0.42188 0.38281 0 0.64453-0.25 0.78125-0.75h1.3906v8.9219h-1.4844c-0.24219-2.457-0.98438-4.2344-2.2344-5.3281-1.2422-1.1016-3.0898-1.6328-5.5469-1.5938-4.8555 0.0625-7.2461 2.2422-7.1719 6.5312 0.0625 3.8125 2.7188 5.9844 7.9688 6.5156 7.4062 0.80469 11.109 3.8438 11.109 9.125z"/>
</g>
</g>
<g fill="#fff">
<g transform="translate(160.94 203.34)">
<path d="m28.953-30.25c2.7266 3.25 4.0938 7.5117 4.0938 12.781 0 5.2734-1.4336 9.6211-4.2969 13.047-2.8555 3.418-6.418 5.125-10.688 5.125-4.2734 0-7.9336-1.7422-10.984-5.2344-2.9922-3.5195-4.4531-7.8633-4.3906-13.031 0.070312-5.1758 1.5469-9.4141 4.4219-12.719 2.875-3.3008 6.5625-4.9531 11.062-4.9531s8.0938 1.6641 10.781 4.9844zm-10.859 29.203c3.0938 0 5.4375-1.4766 7.0312-4.4375 1.5938-2.957 2.3906-6.8828 2.3906-11.781 0-4.9062-0.69922-8.7539-2.0938-11.547-1.668-3.25-4.2188-4.875-7.6562-4.875s-5.9531 1.543-7.5469 4.625c-1.3359 2.625-2 6.5469-2 11.766 0 10.836 3.2891 16.25 9.875 16.25z"/>
</g>
</g>
<g fill="#fff">
<g transform="translate(196.72 203.34)">
<path d="m30.359-34.344 0.09375 10.125h-1.5469c-0.23047-2.8945-1.0234-5.0156-2.375-6.3594-1.3438-1.3438-3.5742-2.0508-6.6875-2.125l-8.5312-0.09375v14.453h6.0781c1.4688 0 2.5156-0.41406 3.1406-1.25 0.76953-1.0625 1.1562-2.6016 1.1562-4.625h1.5938v13.797h-1.5938c0-1.957-0.40234-3.4844-1.2031-4.5781-0.79297-1.0938-1.8242-1.6406-3.0938-1.6406h-6.0781v15.094h4.6406v1.5469h-13.766v-1.5469h4.6875v-31.25h-4.6875v-1.5469z"/>
</g>
</g>
<g fill="#fff">
<g transform="translate(228.91 203.34)">
<path d="m32-34.344 0.09375 10.125h-1.4844c-0.19922-2.7891-0.94922-4.8594-2.25-6.2031-1.293-1.3516-3.5703-2.1133-6.8281-2.2812l-2.2969-0.09375v31.25h4.6875v1.5469h-13.859v-1.5469h4.6406v-31.25l-2.2344 0.09375c-3.2305 0.13672-5.4844 0.84375-6.7656 2.125s-2.0703 3.4023-2.3594 6.3594h-1.4531l0.10938-10.125z"/>
</g>
</g>
<g fill="#fff">
<g transform="translate(262.2 203.34)">
<path d="m50.844-35.234v1.5469c-1.7617-0.070312-2.9492 0.10938-3.5625 0.54688-0.61719 0.42969-1.125 0.91797-1.5312 1.4688-0.39844 0.54297-0.80859 1.6484-1.2344 3.3125l-8.3281 28.406h-2l-9.1719-27.156-10.516 27.156h-1.9844l-8.5312-33.734h-3.6875v-1.5469h13.109v1.5469h-3.7812l5.8281 25.609 10.609-27.156h1.5469l8.9688 26.359 5.5469-19.484c0.5625-1.957 0.84375-3.2188 0.84375-3.7812 0-0.57031-0.17969-0.97266-0.53125-1.2031-0.34375-0.22656-1.2812-0.34375-2.8125-0.34375v-1.5469z"/>
</g>
</g>
<g fill="#fff">
<g transform="translate(312.53 203.34)">
<path d="m36.141-1.5469v1.5469h-12.969v-1.5469h4l-3.3906-9.8125h-12.016l-1.8906 4.4844c-0.60547 1.5312-0.90625 2.6562-0.90625 3.375 0 0.71094 0.097656 1.2148 0.29688 1.5156 0.19531 0.29297 1.2422 0.4375 3.1406 0.4375v1.5469h-10.859v-1.5469c1.7266 0.03125 2.9844-0.19141 3.7656-0.67188 0.78125-0.47656 1.6328-2.0312 2.5625-4.6562l10.812-28.422h2l11.766 33.75zm-23.672-11.719h10.609l-4.9375-14.594z"/>
</g>
</g>
<g fill="#fff">
<g transform="translate(349.81 203.34)">
<path d="m23.375-2.6875-9.5156-13.609h-3.0469l0.10938 14.75h4.625v1.5469h-13.859v-1.5469h4.6406v-31.25h-4.6406v-1.5469h15.109c4.0195 0 7.0781 0.79688 9.1719 2.3906s3.1406 3.7266 3.1406 6.3906c0 2.6562-0.93359 4.8125-2.7969 6.4688-1.793 1.5-4.1523 2.3516-7.0781 2.5469l10.219 13.859c0.53125 0.66797 1.7109 1.0781 3.5469 1.2344v1.5c-2.4297-0.09375-6.2656-0.09375-11.516 0l0.046875-1.5938h1.3906c0.46875-0.09375 0.70312-0.26562 0.70312-0.51562s-0.085938-0.45703-0.25-0.625zm-8.2188-15.062c6.0391 0 9-2.6016 8.875-7.8125-0.13672-4.8203-2.7461-7.2344-7.8281-7.2344h-5.2812l-0.10938 15.047z"/>
</g>
</g>
<g fill="#fff">
<g transform="translate(382.6 203.34)">
<path d="m30.453-11.906h1.5938l-0.54688 11.906h-28.953v-1.5469h4.6875v-31.25h-4.6875v-1.5469h28.156l0.09375 10.125h-1.5312c-0.24219-2.8945-1.043-5.0156-2.4062-6.3594-1.3555-1.3438-3.5781-2.0508-6.6719-2.125l-8.5312-0.09375v14.453h6.0938c1.4258 0 2.4883-0.41406 3.1875-1.25 0.75781-1.0625 1.1406-2.6016 1.1406-4.625h1.5469v13.797h-1.5469c0-1.957-0.40625-3.4844-1.2188-4.5781s-1.8516-1.6406-3.1094-1.6406h-6.0938v15.094l9.3281-0.14062c0.92578 0 2.0469-0.25 3.3594-0.75s2.2852-1.0664 2.9219-1.7031c1.9883-1.8516 3.0508-4.4414 3.1875-7.7656z"/>
</g>
</g>
</svg>
